<?xml version="1.0" standalone="no"?>
<!DOCTYPE svg PUBLIC "-//W3C//DTD SVG 20010904//EN"
 "http://www.w3.org/TR/2001/REC-SVG-20010904/DTD/svg10.dtd">
<svg version="1.0" xmlns="http://www.w3.org/2000/svg"
 width="176.000000pt" height="176.000000pt" viewBox="0 0 176.000000 176.000000"
 preserveAspectRatio="xMidYMid meet">
<metadata>
Created by potrace 1.11, written by Peter Selinger 2001-2013
</metadata>
<g transform="translate(0.000000,176.000000) scale(0.100000,-0.100000)"
fill="#000000" stroke="none">
<path d="M282 1644 c-11 -8 -13 -21 -8 -50 3 -21 9 -67 12 -102 l7 -62 -32
-11 -31 -11 0 -276 0 -276 -55 54 -55 54 0 -297 0 -297 103 0 102 0 78 -78
c43 -42 85 -88 94 -101 22 -33 73 -51 141 -51 32 0 62 -4 68 -9 5 -5 46 -28
92 -51 l83 -42 55 26 c30 14 57 26 59 26 3 0 23 11 45 25 36 23 49 25 150 25
l110 0 0 72 c0 71 0 73 42 115 38 39 47 43 90 43 26 0 48 4 48 10 0 5 36 -26
80 -70 43 -44 82 -80 85 -80 3 0 5 119 5 265 l0 266 -25 24 c-15 16 -36 25
-55 25 l-30 0 0 299 0 299 -31 11 c-31 11 -31 11 -26 68 3 32 9 79 13 104 4
32 3 49 -6 54 -20 12 -1191 12 -1208 -1z"/>
</g>
</svg>
